<svg width="24" height="24" viewBox="0 0 24 24" xmlns="http://www.w3.org/2000/svg">
<g clip-path="url(#clip0_1_197)">
<path d="M23.499 6.20305C23.3599 5.70456 23.0946 5.25038 22.7286 4.88442C22.3627 4.51847 21.9085 4.25313 21.41 4.11405C19.54 3.61305 12.01 3.61305 12.01 3.61305C12.01 3.61305 4.50101 3.60305 2.61101 4.11405C2.11258 4.25337 1.65853 4.51893 1.29275 4.88505C0.926977 5.25118 0.661852 5.70549 0.523012 6.20405C0.168222 8.11887 -0.00687237 10.0627 1.22538e-05 12.0101C-0.00556628 13.9504 0.169523 15.8871 0.523012 17.7951C0.662002 18.2934 0.927193 18.7475 1.29296 19.1135C1.65873 19.4794 2.1127 19.7448 2.61101 19.8841C4.48001 20.3861 12.011 20.3861 12.011 20.3861C12.011 20.3861 19.519 20.3861 21.41 19.8841C21.9086 19.7449 22.3629 19.4794 22.7288 19.1133C23.0948 18.7471 23.3601 18.2927 23.499 17.7941C23.8447 15.8857 24.0121 13.9494 23.999 12.0101C24.0136 10.0627 23.8462 8.11825 23.499 6.20205V6.20305ZM9.60801 15.6031V8.40705L15.874 12.0111L9.60801 15.6031Z"/>
</g>
<defs>
<clipPath id="clip0_1_197">
<rect width="24" height="24"/>
</clipPath>
</defs>
</svg>
